<svg width="16" height="16" viewBox="0 0 16 16" fill="none" xmlns="http://www.w3.org/2000/svg">
<path d="M13.1923 0.5H2.80769C2.19586 0.500668 1.60928 0.744014 1.17665 1.17665C0.744014 1.60928 0.500668 2.19586 0.5 2.80769V13.1923C0.500668 13.8041 0.744014 14.3907 1.17665 14.8234C1.60928 15.256 2.19586 15.4993 2.80769 15.5H13.1923C13.8041 15.4993 14.3907 15.256 14.8234 14.8234C15.256 14.3907 15.4993 13.8041 15.5 13.1923V2.80769C15.4993 2.19586 15.256 1.60928 14.8234 1.17665C14.3907 0.744014 13.8041 0.500668 13.1923 0.5ZM11.9032 5.48642L7.05709 11.2556C7.00393 11.319 6.93779 11.3701 6.86313 11.4056C6.78848 11.4412 6.70706 11.4602 6.6244 11.4615H6.61466C6.5338 11.4615 6.45385 11.4445 6.37999 11.4116C6.30613 11.3786 6.24002 11.3306 6.18594 11.2704L4.10901 8.96274C4.05627 8.9068 4.01524 8.84087 3.98833 8.76884C3.96143 8.69681 3.94919 8.62013 3.95235 8.54331C3.9555 8.46648 3.97398 8.39106 4.00669 8.32148C4.03941 8.2519 4.08571 8.18956 4.14286 8.13813C4.20002 8.08669 4.26688 8.0472 4.33951 8.02198C4.41214 7.99675 4.48909 7.9863 4.56582 7.99124C4.64255 7.99617 4.71752 8.0164 4.78632 8.05072C4.85512 8.08504 4.91637 8.13277 4.96647 8.19111L6.59952 10.0055L11.0198 4.74435C11.119 4.62972 11.2593 4.5587 11.4104 4.54666C11.5614 4.53463 11.7112 4.58253 11.8273 4.68001C11.9433 4.7775 12.0163 4.91674 12.0306 5.06764C12.0448 5.21853 11.999 5.36897 11.9032 5.48642Z" fill="#2D5500"/>
</svg>
