<svg width="18" height="18" viewBox="0 0 18 18" fill="none" xmlns="http://www.w3.org/2000/svg">
<path d="M14.625 0.875H3.375C2.71218 0.875724 2.07672 1.13935 1.60803 1.60803C1.13935 2.07672 0.875724 2.71218 0.875 3.375V14.625C0.875724 15.2878 1.13935 15.9233 1.60803 16.392C2.07672 16.8607 2.71218 17.1243 3.375 17.125H14.625C15.2878 17.1243 15.9233 16.8607 16.392 16.392C16.8607 15.9233 17.1243 15.2878 17.125 14.625V3.375C17.1243 2.71218 16.8607 2.07672 16.392 1.60803C15.9233 1.13935 15.2878 0.875724 14.625 0.875ZM13.2285 6.27695L7.97852 12.527C7.92093 12.5955 7.84927 12.651 7.76839 12.6894C7.68752 12.7279 7.59932 12.7486 7.50977 12.75H7.49922C7.41162 12.75 7.325 12.7315 7.24499 12.6959C7.16497 12.6602 7.09335 12.6081 7.03477 12.543L4.78477 10.043C4.72762 9.98236 4.68317 9.91094 4.65403 9.83291C4.62488 9.75488 4.61162 9.67181 4.61504 9.58858C4.61846 9.50536 4.63848 9.42365 4.67392 9.34827C4.70936 9.27289 4.75952 9.20536 4.82143 9.14964C4.88335 9.09392 4.95578 9.05114 5.03447 9.02381C5.11315 8.99648 5.19651 8.98516 5.27963 8.99051C5.36276 8.99585 5.44398 9.01776 5.51851 9.05495C5.59305 9.09213 5.6594 9.14384 5.71367 9.20703L7.48281 11.1727L12.2715 5.47305C12.3789 5.34886 12.5309 5.27193 12.6945 5.25889C12.8582 5.24584 13.0205 5.29774 13.1462 5.40335C13.2719 5.50896 13.351 5.6598 13.3664 5.82327C13.3818 5.98675 13.3323 6.14971 13.2285 6.27695Z" fill="#2D5500"/>
</svg>
