<svg width="10" height="10" viewBox="0 0 10 10" fill="none" xmlns="http://www.w3.org/2000/svg">
<path d="M3.3 2.63753C3.21114 2.55473 3.09361 2.50965 2.97217 2.51179C2.85074 2.51393 2.73487 2.56313 2.64899 2.64901C2.5631 2.7349 2.51391 2.85076 2.51177 2.9722C2.50962 3.09364 2.5547 3.21117 2.6375 3.30003L4.3375 5.00003L2.6375 6.70003C2.59145 6.74294 2.55451 6.79469 2.52889 6.85219C2.50327 6.90969 2.48949 6.97176 2.48838 7.0347C2.48727 7.09764 2.49885 7.16016 2.52242 7.21852C2.546 7.27689 2.58109 7.32991 2.6256 7.37442C2.67011 7.41894 2.72313 7.45403 2.7815 7.4776C2.83987 7.50118 2.90239 7.51276 2.96533 7.51165C3.02827 7.51054 3.09034 7.49676 3.14784 7.47114C3.20534 7.44552 3.25709 7.40858 3.3 7.36253L5 5.66253L6.7 7.36253C6.74291 7.40858 6.79466 7.44552 6.85216 7.47114C6.90966 7.49676 6.97173 7.51054 7.03467 7.51165C7.09761 7.51276 7.16013 7.50118 7.2185 7.4776C7.27687 7.45403 7.32989 7.41894 7.3744 7.37442C7.41891 7.32991 7.454 7.27689 7.47758 7.21852C7.50115 7.16016 7.51273 7.09764 7.51162 7.0347C7.51051 6.97176 7.49673 6.90969 7.47111 6.85219C7.44549 6.79469 7.40855 6.74294 7.3625 6.70003L5.6625 5.00003L7.3625 3.30003C7.4453 3.21117 7.49038 3.09364 7.48823 2.9722C7.48609 2.85076 7.4369 2.7349 7.35101 2.64901C7.26513 2.56313 7.14926 2.51393 7.02783 2.51179C6.90639 2.50965 6.78886 2.55473 6.7 2.63753L5 4.33753L3.3 2.63753Z" fill="#555557"/>
</svg>
