<svg width="24" height="24" viewBox="0 0 24 24" fill="none" xmlns="http://www.w3.org/2000/svg">
<path fill-rule="evenodd" clip-rule="evenodd" d="M0.624 6.9876C0 8.124 0 9.498 0 12.2436V14.07C0 18.75 -1.43051e-07 21.0912 1.4064 22.5456C2.8116 24 5.0748 24 9.6 24H14.4C18.9252 24 21.1884 24 22.5936 22.5456C24 21.0912 24 18.7512 24 14.07V12.2448C24 9.498 24 8.1252 23.376 6.9876C22.7544 5.8488 21.6156 5.1432 19.3392 3.7296L16.9392 2.2404C14.5332 0.7464 13.3296 0 12 0C10.6704 0 9.468 0.7464 7.0608 2.2404L4.6608 3.7296C2.3844 5.1432 1.2468 5.8488 0.624 6.9876ZM8.9352 16.0776C8.84058 16.004 8.73219 15.95 8.61641 15.9188C8.50063 15.8876 8.37979 15.8799 8.26099 15.8961C8.14218 15.9123 8.02781 15.9521 7.92459 16.0131C7.82137 16.0741 7.73137 16.1551 7.65989 16.2513C7.58841 16.3476 7.53689 16.4572 7.50835 16.5736C7.47981 16.6901 7.47482 16.8111 7.49369 16.9295C7.51255 17.0479 7.55489 17.1613 7.6182 17.2632C7.68152 17.365 7.76455 17.4531 7.8624 17.5224C9.05705 18.4156 10.5084 18.8988 12 18.9C13.4912 18.8985 14.9421 18.4153 16.1364 17.5224C16.2343 17.4531 16.3173 17.365 16.3806 17.2632C16.4439 17.1613 16.4862 17.0479 16.5051 16.9295C16.524 16.8111 16.519 16.6901 16.4904 16.5736C16.4619 16.4572 16.4104 16.3476 16.3389 16.2513C16.2674 16.1551 16.1774 16.0741 16.0742 16.0131C15.971 15.9521 15.8566 15.9123 15.7378 15.8961C15.619 15.8799 15.4982 15.8876 15.3824 15.9188C15.2666 15.95 15.1582 16.004 15.0636 16.0776C14.1794 16.74 13.1048 17.0986 12 17.1C10.8952 17.0986 9.81937 16.74 8.9352 16.0776Z" fill="#84A93D"/>
</svg>
