<svg width="22" height="22" viewBox="0 0 22 22" fill="none" xmlns="http://www.w3.org/2000/svg">
<path fill-rule="evenodd" clip-rule="evenodd" d="M0.572 6.4053C0 7.447 0 8.7065 0 11.2233V12.8975C0 17.1875 -1.3113e-07 19.3336 1.2892 20.6668C2.5773 22 4.6519 22 8.8 22H13.2C17.3481 22 19.4227 22 20.7108 20.6668C22 19.3336 22 17.1886 22 12.8975V11.2244C22 8.7065 22 7.4481 21.428 6.4053C20.8582 5.3614 19.8143 4.7146 17.7276 3.4188L15.5276 2.0537C13.3221 0.6842 12.2188 0 11 0C9.7812 0 8.679 0.6842 6.4724 2.0537L4.2724 3.4188C2.1857 4.7146 1.1429 5.3614 0.572 6.4053ZM8.1906 14.7378C8.10386 14.6703 8.00451 14.6208 7.89838 14.5922C7.79224 14.5637 7.68147 14.5566 7.57257 14.5714C7.46367 14.5863 7.35883 14.6227 7.26421 14.6786C7.16959 14.7346 7.08709 14.8088 7.02157 14.8971C6.95605 14.9853 6.90882 15.0858 6.88265 15.1925C6.85649 15.2993 6.85192 15.4102 6.86921 15.5187C6.88651 15.6272 6.92531 15.7312 6.98335 15.8246C7.04139 15.9179 7.1175 15.9987 7.2072 16.0622C8.3023 16.881 9.63267 17.3239 11 17.325C12.367 17.3237 13.6969 16.8807 14.7917 16.0622C14.8814 15.9987 14.9575 15.9179 15.0155 15.8246C15.0736 15.7312 15.1124 15.6272 15.1297 15.5187C15.147 15.4102 15.1424 15.2993 15.1162 15.1925C15.0901 15.0858 15.0429 14.9853 14.9773 14.8971C14.9118 14.8088 14.8293 14.7346 14.7347 14.6786C14.6401 14.6227 14.5352 14.5863 14.4263 14.5714C14.3174 14.5566 14.2067 14.5637 14.1005 14.5922C13.9944 14.6208 13.895 14.6703 13.8083 14.7378C12.9978 15.345 12.0127 15.6737 11 15.675C9.98731 15.6737 9.00109 15.345 8.1906 14.7378Z" fill="#84A93D"/>
</svg>
