<svg width="12" height="12" viewBox="0 0 12 12" fill="none" xmlns="http://www.w3.org/2000/svg">
<path d="M5.41666 4.25008H6.58333V3.08341H5.41666M6 10.6667C3.4275 10.6667 1.33333 8.57258 1.33333 6.00008C1.33333 3.42758 3.4275 1.33341 6 1.33341C8.5725 1.33341 10.6667 3.42758 10.6667 6.00008C10.6667 8.57258 8.5725 10.6667 6 10.6667ZM6 0.166748C5.23395 0.166748 4.47541 0.317632 3.76768 0.610784C3.05994 0.903937 2.41688 1.33362 1.87521 1.87529C0.781246 2.96925 0.166664 4.45299 0.166664 6.00008C0.166664 7.54718 0.781246 9.03091 1.87521 10.1249C2.41688 10.6665 3.05994 11.0962 3.76768 11.3894C4.47541 11.6825 5.23395 11.8334 6 11.8334C7.54709 11.8334 9.03082 11.2188 10.1248 10.1249C11.2187 9.03091 11.8333 7.54718 11.8333 6.00008C11.8333 5.23404 11.6824 4.47549 11.3893 3.76776C11.0961 3.06003 10.6665 2.41697 10.1248 1.87529C9.58311 1.33362 8.94005 0.903937 8.23232 0.610784C7.52458 0.317632 6.76604 0.166748 6 0.166748ZM5.41666 8.91675H6.58333V5.41675H5.41666V8.91675Z" fill="#555557"/>
</svg>
