<svg width="6" height="8" viewBox="0 0 6 8" fill="none" xmlns="http://www.w3.org/2000/svg">
<path d="M3.578 7.272C4.4495 6.505 6 4.938 6 3.5C6 2.70435 5.68393 1.94129 5.12132 1.37868C4.55871 0.81607 3.79565 0.5 3 0.5C2.20435 0.5 1.44129 0.81607 0.87868 1.37868C0.316071 1.94129 1.18561e-08 2.70435 0 3.5C0 4.938 1.55 6.505 2.422 7.272C2.58106 7.41397 2.7868 7.49244 3 7.49244C3.2132 7.49244 3.41894 7.41397 3.578 7.272ZM2 3.5C2 3.23478 2.10536 2.98043 2.29289 2.79289C2.48043 2.60536 2.73478 2.5 3 2.5C3.26522 2.5 3.51957 2.60536 3.70711 2.79289C3.89464 2.98043 4 3.23478 4 3.5C4 3.76522 3.89464 4.01957 3.70711 4.20711C3.51957 4.39464 3.26522 4.5 3 4.5C2.73478 4.5 2.48043 4.39464 2.29289 4.20711C2.10536 4.01957 2 3.76522 2 3.5Z" fill="white"/>
</svg>
