<svg width="5" height="7" viewBox="0 0 5 7" fill="none" xmlns="http://www.w3.org/2000/svg">
<path d="M2.98167 6.22341C3.70792 5.58424 5 4.27841 5 3.08008C5 2.41704 4.73661 1.78115 4.26777 1.31231C3.79893 0.84347 3.16304 0.580078 2.5 0.580078C1.83696 0.580078 1.20107 0.84347 0.732233 1.31231C0.263392 1.78115 9.88008e-09 2.41704 0 3.08008C0 4.27841 1.29167 5.58424 2.01833 6.22341C2.15088 6.34172 2.32233 6.40711 2.5 6.40711C2.67767 6.40711 2.84912 6.34172 2.98167 6.22341ZM1.66667 3.08008C1.66667 2.85906 1.75446 2.6471 1.91074 2.49082C2.06702 2.33454 2.27899 2.24674 2.5 2.24674C2.72101 2.24674 2.93298 2.33454 3.08926 2.49082C3.24554 2.6471 3.33333 2.85906 3.33333 3.08008C3.33333 3.30109 3.24554 3.51305 3.08926 3.66933C2.93298 3.82561 2.72101 3.91341 2.5 3.91341C2.27899 3.91341 2.06702 3.82561 1.91074 3.66933C1.75446 3.51305 1.66667 3.30109 1.66667 3.08008Z" fill="white"/>
</svg>
