<svg width="8" height="10" viewBox="0 0 8 10" fill="none" xmlns="http://www.w3.org/2000/svg">
<path d="M4.77067 9.02933C5.93267 8.00667 8 5.91733 8 4C8 2.93913 7.57857 1.92172 6.82843 1.17157C6.07828 0.421427 5.06087 0 4 0C2.93913 0 1.92172 0.421427 1.17157 1.17157C0.421427 1.92172 1.58081e-08 2.93913 0 4C0 5.91733 2.06667 8.00667 3.22933 9.02933C3.44141 9.21863 3.71573 9.32325 4 9.32325C4.28427 9.32325 4.55859 9.21863 4.77067 9.02933ZM2.66667 4C2.66667 3.64638 2.80714 3.30724 3.05719 3.05719C3.30724 2.80714 3.64638 2.66667 4 2.66667C4.35362 2.66667 4.69276 2.80714 4.94281 3.05719C5.19286 3.30724 5.33333 3.64638 5.33333 4C5.33333 4.35362 5.19286 4.69276 4.94281 4.94281C4.69276 5.19286 4.35362 5.33333 4 5.33333C3.64638 5.33333 3.30724 5.19286 3.05719 4.94281C2.80714 4.69276 2.66667 4.35362 2.66667 4Z" fill="#555557"/>
</svg>
