<svg width="9" height="9" viewBox="0 0 9 9" fill="none" xmlns="http://www.w3.org/2000/svg">
<path d="M0.416316 3.27961C1.3764 5.36991 3.08201 7.02666 5.19932 7.92561L5.53932 8.07711C5.91583 8.24477 6.33944 8.27416 6.7355 8.1601C7.13156 8.04604 7.47465 7.79585 7.70432 7.45361L8.14882 6.79161C8.21837 6.68779 8.24653 6.56169 8.22775 6.43814C8.20896 6.3146 8.14459 6.20256 8.04732 6.12411L6.54132 4.90911C6.48887 4.86683 6.42842 4.83558 6.36359 4.81724C6.29876 4.7989 6.2309 4.79386 6.16407 4.8024C6.09724 4.81095 6.03283 4.83291 5.97471 4.86697C5.91658 4.90103 5.86594 4.94649 5.82582 5.00061L5.35982 5.62911C4.16362 5.03833 3.19538 4.06992 2.60482 2.87361L3.23282 2.40761C3.28694 2.36749 3.3324 2.31685 3.36646 2.25872C3.40052 2.2006 3.42248 2.13619 3.43103 2.06936C3.43957 2.00253 3.43453 1.93467 3.41619 1.86984C3.39785 1.80501 3.3666 1.74456 3.32432 1.69211L2.10932 0.186113C2.03086 0.08884 1.91883 0.0244702 1.79529 0.00568369C1.67174 -0.0131028 1.54564 0.0150561 1.44182 0.0846134L0.775316 0.531613C0.431016 0.762503 0.179861 1.10812 0.0665922 1.5069C-0.0466767 1.90567 -0.0147034 2.33171 0.156816 2.70911L0.416316 3.27961Z" fill="#555557"/>
</svg>
