<svg width="10" height="10" viewBox="0 0 10 10" fill="none" xmlns="http://www.w3.org/2000/svg">
<path d="M10 5C10 7.7615 7.7615 10 5 10C2.2385 10 0 7.7615 0 5C0 2.2385 2.2385 0 5 0V1C4.04227 1.00011 3.11636 1.34385 2.39058 1.96874C1.66479 2.59364 1.18731 3.4582 1.04491 4.40529C0.90252 5.35238 1.10467 6.31912 1.61461 7.12981C2.12456 7.94049 2.90845 8.5413 3.82381 8.82302C4.73917 9.10475 5.72524 9.0487 6.60277 8.66505C7.48031 8.2814 8.19106 7.59563 8.60585 6.73238C9.02064 5.86912 9.11193 4.8857 8.86312 3.96085C8.61431 3.036 8.04193 2.23112 7.25 1.6925V3H6.25V0H9.25V1H8C8.62127 1.46547 9.12549 2.06933 9.47266 2.76367C9.81983 3.45801 10.0004 4.22371 10 5Z" fill="white"/>
</svg>
