<svg width="6" height="7" viewBox="0 0 6 7" fill="none" xmlns="http://www.w3.org/2000/svg">
<g clip-path="url(#clip0_19_382)">
<path d="M2.25 0.875C2.01726 0.874878 1.7902 0.946946 1.60013 1.08127C1.41006 1.2156 1.26633 1.40557 1.18875 1.625H0V2.375H1.18875C1.26623 2.59458 1.4099 2.78471 1.59997 2.9192C1.79005 3.0537 2.01716 3.12592 2.25 3.12592C2.48284 3.12592 2.70995 3.0537 2.90003 2.9192C3.0901 2.78471 3.23377 2.59458 3.31125 2.375H6V1.625H3.31125C3.23367 1.40557 3.08994 1.2156 2.89987 1.08127C2.7098 0.946946 2.48274 0.874878 2.25 0.875ZM1.875 2C1.875 1.90054 1.91451 1.80516 1.98484 1.73484C2.05516 1.66451 2.15054 1.625 2.25 1.625C2.34946 1.625 2.44484 1.66451 2.51516 1.73484C2.58549 1.80516 2.625 1.90054 2.625 2C2.625 2.09946 2.58549 2.19484 2.51516 2.26517C2.44484 2.33549 2.34946 2.375 2.25 2.375C2.15054 2.375 2.05516 2.33549 1.98484 2.26517C1.91451 2.19484 1.875 2.09946 1.875 2ZM3.75 3.875C3.51726 3.87488 3.2902 3.94695 3.10013 4.08127C2.91006 4.2156 2.76633 4.40557 2.68875 4.625H0V5.375H2.68875C2.76623 5.59458 2.9099 5.78471 3.09997 5.9192C3.29005 6.0537 3.51716 6.12592 3.75 6.12592C3.98284 6.12592 4.20995 6.0537 4.40003 5.9192C4.5901 5.78471 4.73377 5.59458 4.81125 5.375H6V4.625H4.81125C4.73367 4.40557 4.58994 4.2156 4.39987 4.08127C4.2098 3.94695 3.98274 3.87488 3.75 3.875ZM3.375 5C3.375 4.90054 3.41451 4.80516 3.48484 4.73484C3.55516 4.66451 3.65054 4.625 3.75 4.625C3.84946 4.625 3.94484 4.66451 4.01516 4.73484C4.08549 4.80516 4.125 4.90054 4.125 5C4.125 5.09946 4.08549 5.19484 4.01516 5.26517C3.94484 5.33549 3.84946 5.375 3.75 5.375C3.65054 5.375 3.55516 5.33549 3.48484 5.26517C3.41451 5.19484 3.375 5.09946 3.375 5Z" fill="white"/>
</g>
<defs>
<clipPath id="clip0_19_382">
<rect width="6" height="6" fill="white" transform="translate(0 0.5)"/>
</clipPath>
</defs>
</svg>
