<svg width="8" height="9" viewBox="0 0 8 9" fill="none" xmlns="http://www.w3.org/2000/svg">
<path d="M2.12817 6.98733V6.83333L2.62817 6.5C2.36017 6.5 2.13295 6.40667 1.9465 6.22C1.75984 6.03378 1.6665 5.80667 1.6665 5.53867V2.5C1.6665 2.14578 1.84828 1.89056 2.21184 1.73433C2.57584 1.57811 3.17184 1.5 3.99984 1.5C4.83606 1.5 5.43395 1.57711 5.7935 1.73133C6.15306 1.88556 6.33295 2.14178 6.33317 2.5V5.53867C6.33317 5.80644 6.23984 6.03367 6.05317 6.22033C5.86673 6.40678 5.63961 6.5 5.37184 6.5L5.87184 6.83333V6.98733H2.12817ZM1.99984 4.16667H3.83317V2.67967H1.99984V4.16667ZM4.1665 4.16667H5.99984V2.67967H4.1665V4.16667ZM2.83484 5.70533C2.93839 5.70533 3.02595 5.669 3.0975 5.59633C3.16928 5.52367 3.20517 5.43556 3.20517 5.332C3.20517 5.22822 3.16884 5.14044 3.09617 5.06867C3.0235 4.99733 2.93539 4.96167 2.83184 4.96167C2.72806 4.96167 2.64028 4.99789 2.5685 5.07033C2.49695 5.143 2.46117 5.23111 2.46117 5.33467C2.46117 5.43844 2.4975 5.52622 2.57017 5.598C2.64284 5.66956 2.73095 5.70533 2.8345 5.70533M5.16784 5.70533C5.27161 5.70533 5.35939 5.669 5.43117 5.59633C5.5025 5.52367 5.53817 5.43556 5.53817 5.332C5.53817 5.22822 5.50195 5.14044 5.4295 5.06867C5.35684 4.99733 5.26861 4.96167 5.16484 4.96167C5.06128 4.96167 4.97373 4.99789 4.90217 5.07033C4.83039 5.143 4.7945 5.23111 4.7945 5.33467C4.7945 5.43844 4.83084 5.52622 4.9035 5.598C4.97617 5.66956 5.06428 5.70533 5.16784 5.70533Z" fill="white"/>
</svg>
