<svg width="6" height="8" viewBox="0 0 6 8" fill="none" xmlns="http://www.w3.org/2000/svg">
<path d="M0.66058 7.10917V6.91667L1.28558 6.5C0.95058 6.5 0.666552 6.38333 0.433496 6.15C0.200163 5.91722 0.0834961 5.63333 0.0834961 5.29833V1.5C0.0834961 1.05722 0.310718 0.738194 0.765163 0.542917C1.22016 0.347639 1.96516 0.25 3.00016 0.25C4.04544 0.25 4.7928 0.346389 5.24225 0.539167C5.69169 0.731944 5.91655 1.05222 5.91683 1.5V5.29833C5.91683 5.63305 5.80016 5.91708 5.56683 6.15042C5.33377 6.38347 5.04988 6.5 4.71516 6.5L5.34016 6.91667V7.10917H0.66058ZM0.500163 3.58333H2.79183V1.72458H0.500163V3.58333ZM3.2085 3.58333H5.50016V1.72458H3.2085V3.58333ZM1.54391 5.50667C1.67336 5.50667 1.7828 5.46125 1.87225 5.37042C1.96197 5.27958 2.00683 5.16944 2.00683 5.04C2.00683 4.91028 1.96141 4.80055 1.87058 4.71083C1.77975 4.62167 1.66961 4.57708 1.54016 4.57708C1.41044 4.57708 1.30072 4.62236 1.211 4.71292C1.12155 4.80375 1.07683 4.91389 1.07683 5.04333C1.07683 5.17305 1.12225 5.28278 1.21308 5.3725C1.30391 5.46194 1.41447 5.50667 1.54391 5.50667ZM4.46016 5.50667C4.58988 5.50667 4.69961 5.46125 4.78933 5.37042C4.8785 5.27958 4.92308 5.16944 4.92308 5.04C4.92308 4.91028 4.8778 4.80055 4.78725 4.71083C4.69641 4.62167 4.58613 4.57708 4.45641 4.57708C4.32697 4.57708 4.21752 4.62236 4.12808 4.71292C4.03836 4.80375 3.9935 4.91389 3.9935 5.04333C3.9935 5.17305 4.03891 5.28278 4.12975 5.3725C4.22058 5.46194 4.33072 5.50667 4.46016 5.50667Z" fill="white"/>
</svg>
