<svg width="20" height="20" viewBox="0 0 20 20" fill="none" xmlns="http://www.w3.org/2000/svg">
<path d="M6.6 5.27505C6.42228 5.10945 6.18722 5.0193 5.94435 5.02358C5.70147 5.02787 5.46974 5.12626 5.29797 5.29802C5.12621 5.46979 5.02782 5.70152 5.02353 5.9444C5.01925 6.18728 5.1094 6.42233 5.275 6.60005L8.675 10.0001L5.275 13.4001C5.18289 13.4859 5.10901 13.5894 5.05777 13.7044C5.00653 13.8194 4.97898 13.9435 4.97676 14.0694C4.97454 14.1953 4.9977 14.3203 5.04485 14.437C5.092 14.5538 5.16218 14.6598 5.2512 14.7488C5.34023 14.8379 5.44627 14.9081 5.563 14.9552C5.67974 15.0024 5.80478 15.0255 5.93065 15.0233C6.05653 15.0211 6.18067 14.9935 6.29567 14.9423C6.41067 14.891 6.51417 14.8172 6.6 14.7251L10 11.3251L13.4 14.7251C13.4858 14.8172 13.5893 14.891 13.7043 14.9423C13.8193 14.9935 13.9435 15.0211 14.0693 15.0233C14.1952 15.0255 14.3203 15.0024 14.437 14.9552C14.5537 14.9081 14.6598 14.8379 14.7488 14.7488C14.8378 14.6598 14.908 14.5538 14.9552 14.437C15.0023 14.3203 15.0255 14.1953 15.0232 14.0694C15.021 13.9435 14.9935 13.8194 14.9422 13.7044C14.891 13.5894 14.8171 13.4859 14.725 13.4001L11.325 10.0001L14.725 6.60005C14.8906 6.42233 14.9808 6.18728 14.9765 5.9444C14.9722 5.70152 14.8738 5.46979 14.702 5.29802C14.5303 5.12626 14.2985 5.02787 14.0557 5.02358C13.8128 5.0193 13.5777 5.10945 13.4 5.27505L10 8.67505L6.6 5.27505Z" fill="black"/>
</svg>
